HIERARCHY
ROOT pelvis
{
  OFFSET 0 100 0
  CHANNELS 6 Xposition Yposition Zposition Zrotation Xrotation Yrotation
  JOINT pelvis_right_femur
  {
    OFFSET -10.78128 -3.44521 -0.5502486
    CHANNELS 3 Zrotation Xrotation Yrotation
    JOINT right_femur_tibia
    {
      OFFSET -0.8047443 -44.0398 -0.1307829
      CHANNELS 3 Zrotation Xrotation Yrotation
      JOINT right_tibia_foot
      {
        OFFSET 3.006224 -47.83518 -5
        CHANNELS 3 Zrotation Xrotation Yrotation
        End Site
        {
          OFFSET 0 -5 15
        }
      }
    }
  }
  JOINT pelvis_left_femur
  {
    OFFSET 10.78128 -3.44521 -0.5502486
    CHANNELS 3 Zrotation Xrotation Yrotation
    JOINT left_femur_tibia
    {
      OFFSET 0.8047443 -44.0398 -0.1307829
      CHANNELS 3 Zrotation Xrotation Yrotation
      JOINT left_tibia_foot
      {
        OFFSET -4.370144 -48.10324 -4.275266
        CHANNELS 3 Zrotation Xrotation Yrotation
        End Site
        {
          OFFSET 0 -5 15
        }
      }
    }
  }
  JOINT pelvis_spine1
  {
    OFFSET 0 6.468898 -3.129235
    CHANNELS 3 Zrotation Xrotation Yrotation
    JOINT spine1
    {
      OFFSET 0 23.15396 4.99043
      CHANNELS 3 Zrotation Xrotation Yrotation
      JOINT spine2
      {
        OFFSET 0 20.79997 -5.064912
        CHANNELS 3 Zrotation Xrotation Yrotation
        JOINT neck
        {
          OFFSET 0 14.38658 9.616178
          CHANNELS 3 Zrotation Xrotation Yrotation
          End Site
          {
            OFFSET 0 20 0
          }
        }
      }
      JOINT right_manubrium
      {
        OFFSET -5.722621 16.35077 3.967754
        CHANNELS 3 Zrotation Xrotation Yrotation
        JOINT right_clavicle
        {
          OFFSET -13.16364 1.694482 -4.693211
          CHANNELS 3 Zrotation Xrotation Yrotation
          JOINT right_humerus
          {
            OFFSET -28.5034 -0.3100689 -2.792744
            CHANNELS 3 Zrotation Xrotation Yrotation
            JOINT right_radius
            {
              OFFSET -25.15693 0.02248979 -1.271978
              CHANNELS 3 Zrotation Xrotation Yrotation
              End Site
              {
                OFFSET -15 0 0
              }
            }
          }
        }
      }
      JOINT left_manubrium
      {
        OFFSET 5.722621 16.35077 3.967754
        CHANNELS 3 Zrotation Xrotation Yrotation
        JOINT left_clavicle
        {
          OFFSET 13.16364 1.694482 -4.693211
          CHANNELS 3 Zrotation Xrotation Yrotation
          JOINT left_humerus
          {
            OFFSET 29.39168 -1.063119 -2.237045
            CHANNELS 3 Zrotation Xrotation Yrotation
            JOINT left_radius
            {
              OFFSET 24.59957 -0.9528479 0.9047498
              CHANNELS 3 Zrotation Xrotation Yrotation
              End Site
              {
                OFFSET 15 -0 -0
              }
            }
          }
        }
      }
    }
  }
}
MOTION
Frames: 17
Frame Time: 0.0416666666667
0 103.5113 0 7.516948 -24.06992 2.110414 -14.0607 59.97879 22.36972 -0 69.6869 -0 15.38528 -21.40842 -3.053016 -3.219944 -51.42336 -6.619193 -0 50.18442 -0 0.8358032 7.584617 38.7638 -5.212908 1.476382 13.15432 -5.750041 11.9625 5.404168 4.394829 28.21594 2.944636 -0.9049578 -9.450497 9.238715 0.02691072 -23.27052 12.45464 80.59074 15.49802 6.558178 -0 0 30.49209 -35.97992 12.7251 18.19127 0.5515414 -4.866512 -3.425546 -95.53895 13.97169 27.70246 -0 0 8.809678 1.308397 3.859595 9.074049
1.440702 99.78572 3.434861 6.473212 -21.91053 0.7989873 -9.607177 51.08329 17.05143 -0 68.90677 -0 13.25359 -17.46358 -2.797403 -4.604771 -45.53284 -8.977451 -0 33.17945 -0 4.220678 3.08404 37.76924 -5.134453 0.7124185 12.34741 -5.252505 12.66757 4.073618 3.885921 26.98602 3.672501 -0.4177027 -11.49435 9.294506 -0.1587641 -24.88424 12.79154 81.13065 15.44452 4.807188 -0 0 31.76517 -35.5327 12.55395 18.06079 1.438392 -7.18162 -4.242523 -95.40563 12.9245 28.82042 -0 0 6.487273 2.825254 5.871738 7.43174
3.070663 90.78386 3.422648 -2.713404 13.50595 1.755218 -5.24667 -68.12179 -6.692184 -0 34.78536 -0 -24.35654 -6.780499 4.121849 0.63975 43.49444 -41.37969 180 -75.58337 180 36.12993 -45.82416 40.45527 -5.613211 -6.872813 -2.318771 5.216901 6.966774 -13.04108 -0.2079951 18.57938 9.637898 5.544645 -36.60114 12.7397 1.952215 -25.99402 9.387136 90.20913 35.85565 -23.82618 -0 0 19.16881 4.854521 -3.009492 2.858366 11.23529 -28.28439 -2.309713 -94.02241 26.12229 24.41395 0 0 -22.20788 26.77231 28.26371 -16.4846
3.5247 82.77772 0.779439 -6.720231 20.68593 6.515046 -134.5711 -86.31188 -138.8444 -0 21.61382 -0 -32.4384 -7.998802 4.802774 13.79077 59.80761 -57.10494 180 -71.52078 180 37.73973 -53.96068 39.66407 -5.185895 -7.199405 -5.495454 7.389589 3.921603 -15.92055 -0.6663804 17.7549 10.57796 7.30354 -41.32195 14.01427 3.488277 -22.48249 7.871502 95.82961 41.5969 -33.35082 -0 0 11.2496 15.96046 -8.921597 0.1280522 13.69345 -31.3841 0.260797 -92.93062 31.90179 19.34832 0 0 -28.65217 32.06073 30.30012 -21.39229
3.478553 75.53387 -0.7294163 -7.596476 18.47146 9.261945 -15.48734 -86.80518 -20.87215 -0 16.5794 -0 -30.42573 -9.339575 3.485292 7.086462 55.5679 -47.38361 0 -79.83869 0 26.16534 -51.27397 31.11492 -4.102531 -5.115653 -4.781437 7.062155 2.971913 -14.41974 -0.1398365 18.94123 10.13463 6.886758 -39.79605 13.72232 3.585055 -19.10754 7.193354 94.93868 41.03538 -32.14967 -0 0 7.534721 16.07877 -9.579884 -0.6707258 13.56906 -29.44819 1.424039 -91.98032 33.08976 15.23014 0 0 -27.59961 29.61717 27.66435 -19.04137
3.605669 68.27593 -0.2848318 -5.040399 10.2813 9.982891 4.561062 -61.57278 -0.6136627 -0 20.03698 -0 -21.91013 -10.51251 1.499 -3.607444 36.12681 -30.40341 0 -43.49595 0 15.46128 -41.71344 26.53954 -3.269694 -1.974338 -1.671169 4.951796 3.784121 -10.21246 0.9952975 21.19806 8.725529 5.002727 -34.29433 12.62 1.791931 -17.56565 7.3122 89.67707 34.70988 -22.90323 -0 0 9.090589 7.907187 -6.45866 0.1656032 11.76287 -24.61682 0.9643815 -91.71968 29.88733 13.53492 0 0 -21.03298 23.95154 22.24154 -14.21532
4.405371 60.19174 1.210551 -1.567419 1.538138 11.00021 3.431606 -37.85128 -1.057895 -0 29.34527 -0 -12.94304 -7.803689 0.9635779 -6.531592 15.58593 -20.88862 0 -35.24123 0 13.99268 -36.38152 29.64391 -3.224839 0.2680047 1.484656 2.246315 6.095619 -6.284054 1.994506 22.4043 7.444146 3.213899 -29.24333 11.93778 -2.223458 -20.19695 8.115544 86.85035 22.93661 -13.37026 -0 0 16.64894 -4.483117 -2.499841 3.01898 10.52672 -21.29367 -1.226612 -92.01341 22.39307 15.4052 0 0 -13.93458 20.92365 17.44248 -13.04395
6.091885 50.36056 2.575753 0.8031013 -3.419822 13.20103 0.5128322 -30.16509 -3.507348 -0 39.43047 -0 -8.550254 -0.7021338 1.857353 -6.448768 6.818311 -17.37968 0 -64.26448 0 22.12339 -39.40492 37.36376 -3.762693 0.4295287 2.903168 0.2900356 9.070808 -4.78497 2.258284 21.70882 7.053376 2.26398 -27.55082 11.86755 -7.264096 -26.28142 8.771046 88.53248 10.67892 -7.862013 -0 0 26.95152 -15.52209 -0.335724 6.487477 10.73172 -21.91325 -4.588845 -92.07104 13.35964 19.47047 0 0 -10.48708 22.30616 16.02343 -16.77044
8.539537 37.93498 2.792488 0.7946457 -3.055107 16.46715 -4.9711 -42.39979 -9.273629 -0 45.98022 -0 -10.84918 9.441103 4.536621 -5.793763 14.10032 -19.20613 180 -59.71295 180 40.95475 -47.98119 50.99183 -4.41361 -1.570358 1.973732 0.02459953 12.14127 -6.587308 1.649187 19.15203 7.720512 2.436131 -29.93387 12.18336 -11.96761 -33.81454 8.806017 92.28356 1.914614 -7.325337 -0 0 36.2965 -21.68016 -0.1173889 8.709279 12.02901 -26.96869 -8.304066 -91.36275 5.374431 24.13447 0 0 -12.72344 27.99378 17.91577 -24.41314
10.98004 23.68466 1.462084 -1.317644 0.1023243 20.55636 -15.909 -62.2107 -21.03666 -0 45.90063 -0 -17.17044 17.54997 8.098454 -3.947513 29.40948 -23.75183 180 -15.92445 180 60.77321 -53.96739 64.98226 -4.582532 -4.225197 -0.09998908 1.263467 14.35607 -10.22437 0.7209424 16.34768 8.685205 3.338674 -33.75086 12.38516 -14.24507 -38.77346 8.789183 95.0955 -1.040314 -11.21359 -0 0 40.04886 -22.37594 -0.2476105 8.954813 13.02663 -33.34983 -10.93316 -90.02003 1.300995 26.8564 0 0 -18.99592 34.07448 20.47724 -31.17771
12.70001 10.31089 -0.09853713 -2.859974 1.188991 24.33595 -18.97085 -69.16845 -24.77551 -0 39.22046 -0 -19.99738 18.74992 8.227862 -2.556426 36.81493 -24.57839 180 -30.59217 180 54.34252 -54.79967 56.50715 -3.578636 -5.279314 -0.8203254 2.458999 15.14018 -12.40006 0.2463566 15.63481 8.812547 3.828349 -34.40413 11.6032 -12.37339 -37.51958 9.892005 95.89364 1.873683 -16.67042 -0 0 35.51575 -20.61288 1.2502 8.002872 12.29581 -35.93893 -11.46714 -88.66112 2.407157 25.43683 0 0 -24.63244 33.55406 21.57605 -29.78376
14.42553 0.9676418 1.461534 -0.0079524 -3.594486 25.76958 1.202719 -44.69461 -4.5407 -0 29.05984 -0 -13.00205 10.38574 1.645234 -4.305783 21.69737 -14.72702 0 -50.92713 0 18.80237 -37.48325 26.72746 -1.1571 -2.856019 1.970876 1.785829 14.6567 -9.926464 0.9052363 18.74207 7.180384 2.963524 -28.05573 9.314871 -7.236097 -28.763 11.55072 94.70997 8.718386 -19.20097 -0 0 23.56246 -20.88873 5.746149 7.362633 8.905885 -30.7098 -9.549643 -87.7278 7.793318 19.44669 0 0 -24.43698 21.92419 17.83928 -15.87856
17.20362 -1.515583 8.464151 7.815368 -15.00407 24.98668 8.750206 15.41842 3.810691 -0 19.90554 -0 1.326416 -7.740417 -6.974581 0.7874624 -18.11594 3.337809 -180 68.75738 -180 -10.49445 5.384337 18.38715 1.575406 3.20314 8.207456 -1.2443 13.27625 -2.346957 3.129727 25.27157 3.534594 1.310595 -14.73538 6.489281 -1.594472 -15.16379 12.15315 91.19633 15.93672 -15.48329 -0 0 8.785687 -26.18869 12.7579 8.817366 2.96907 -18.11554 -5.309831 -87.3184 14.79998 11.10109 0 0 -16.31937 5.160125 4.055436 4.352069
19.36521 5.013051 18.82068 16.6641 -30.25713 24.12665 -1.151462 88.64591 20.43204 -0 15.13516 -0 17.44978 -29.46319 -10.70253 42.40226 -59.64316 52.96045 -0 -84.65074 -0 -50.3424 45.36734 43.6326 2.939572 10.6097 15.66152 -5.394268 11.30281 7.406159 6.664659 32.59374 -1.4026 -0.2080411 0.8296005 4.38159 2.503802 -2.44519 11.6184 86.05087 19.72287 -6.026466 0 0 -2.645646 -35.91753 19.29936 13.22108 -4.168103 -3.37969 0.2933054 -87.67043 20.40286 4.337353 0 0 -2.96536 -6.807172 -16.00101 20.71503
18.35882 18.44036 27.2963 20.98791 -43.43133 22.18786 -165.8513 36.43814 -170.6011 -0 15.53522 -0 30.9372 -44.31924 -8.152981 114.4915 -50.63823 129.3223 -0 11.82471 -0 -99.66522 50.62218 88.40087 2.558802 15.79792 21.33576 -8.791256 9.53742 14.96316 9.914921 37.54784 -5.646078 -1.318449 11.88713 3.434407 3.699978 3.878379 11.07598 82.40421 18.6706 4.306808 0 0 -6.159622 -45.41547 22.04507 18.42448 -9.63754 7.091948 4.695066 -89.0987 22.59235 2.630136 -0 0 9.939005 -11.98482 -30.26037 29.32865
15.45802 32.33855 31.99246 16.61206 -48.53407 14.50038 -166.4344 21.97909 -170.7815 -0 19.6118 -0 33.10506 -46.5273 -6.001622 126.6027 -41.74842 141.2449 -0 2.179786 -0 -99.32722 49.18887 91.25355 1.463334 16.42121 22.73412 -10.20314 9.000408 17.25146 10.6582 38.40096 -6.811142 -1.917023 13.79532 3.512862 1.552197 1.374008 11.17468 82.51028 14.73728 10.57198 0 0 -0.8239204 -48.90864 20.35376 20.66625 -10.11576 9.665804 4.76381 -91.31311 20.94373 6.886641 -0 0 17.38134 -12.58189 -30.47479 28.5872
13.58193 41.13721 36.12953 8.176257 -42.73688 3.758604 -169.946 49.6822 -174.2641 -0 24.92818 -0 21.41096 -37.3065 -6.855506 113.3185 -58.3563 123.0576 -180 -76.55693 -180 -54.63619 45.45233 56.46867 0.3479398 12.58922 19.38834 -9.315242 9.850379 13.86871 8.48763 35.30654 -4.525003 -1.800468 6.456721 4.250154 -2.883325 -8.489898 11.17959 85.42225 10.52866 11.38216 -0 0 10.73047 -44.7116 15.43298 19.03137 -5.533254 4.115405 0.503706 -93.43233 16.52113 15.23589 -0 0 17.69586 -8.526973 -17.11594 19.71218
